<svg viewBox="0 0 64 64" xmlns="http://www.w3.org/2000/svg">
	<path d="M0 4a4 4 0 0 1 4-4h56a4 4 0 0 1 4 4v56a4 4 0 0 1-4 4H4a4 4 0 0 1-4-4V4Z" fill="#FFD803"/>
	<path
		d="M29.632 44.343a1.564 1.564 0 0 1-.136-2.19l6.084-6.983a1.52 1.52 0 0 1 2.164-.138c.635.567.696 1.547.136 2.19l-6.084 6.983a1.52 1.52 0 0 1-2.164.138Zm-9.86-4.953c.83.17 1.638-.374 1.806-1.214l1.818-9.126a1.55 1.55 0 0 0-1.2-1.827 1.534 1.534 0 0 0-1.806 1.214l-1.818 9.126a1.55 1.55 0 0 0 1.2 1.827Zm5.602 1.539a1.525 1.525 0 0 0 2.055-.7l4.09-8.339a1.56 1.56 0 0 0-.691-2.08 1.525 1.525 0 0 0-2.055.7l-4.09 8.34a1.56 1.56 0 0 0 .69 2.079Zm-9.07-17.517c1.66.34 2.735 1.976 2.4 3.655l-3.334 16.73c-.335 1.68-1.952 2.768-3.612 2.43-1.66-.34-2.735-1.976-2.4-3.656l3.334-16.73c.335-1.68 1.952-2.767 3.612-2.429Z"
		fill="#FFFFFE"/>
	<path
		d="M28.061 54.605c-5.072-6.552-12.476-7.872-15.207-7.749-1.984.09-3.664-1.466-3.752-3.473-.088-2.008 1.449-3.708 3.433-3.797 4.434-.2 14.34 1.686 21.188 10.532a3.668 3.668 0 0 1-.614 5.108 3.568 3.568 0 0 1-5.048-.621Zm-3.606-33.853c-1.005-2.567-3.167-3.74-4.032-4.046h-.005a5.381 5.381 0 0 0-2.098-.145c-.508.075-.972.24-1.38.528-.391.277-.876.768-1.31 1.721-.673 1.48-.421 2.242-.223 2.62.284.54.88 1.03 1.55 1.275 1.867.684 2.832 2.77 2.156 4.66-.677 1.89-2.739 2.866-4.606 2.182-1.99-.73-4.169-2.263-5.45-4.7-1.365-2.597-1.467-5.765.04-9.08 1.944-4.272 5.261-5.977 8.19-6.407 2.692-.396 4.942.276 5.51.477 2.052.726 6.31 3.04 8.345 8.235.731 1.868-.173 3.982-2.019 4.723-1.846.74-3.936-.175-4.668-2.043Z"
		fill="#FFFFFE"/>
	<path
		d="M33.022 15.374c-1.558.267-2.515.976-2.909 2.454-.517 1.94-2.49 3.09-4.407 2.567-1.918-.523-3.054-2.52-2.537-4.46 1.313-4.933 5.12-7.13 8.652-7.736 3.311-.567 6.864.13 9.13 1.431 1.727.992 2.333 3.213 1.352 4.96a3.573 3.573 0 0 1-4.902 1.369c-.74-.425-2.601-.89-4.38-.585Zm11.19 21.85a3.042 3.042 0 0 0-4.328.275L28.73 50.301a3.129 3.129 0 0 0 .272 4.38 3.042 3.042 0 0 0 4.328-.275l11.155-12.803a3.129 3.129 0 0 0-.273-4.38Z"
		fill="#FFFFFE"/>
	<path
		d="M41.378 29.045c2.629-.742 4.859.292 5.623.805l.004.003a5.48 5.48 0 0 1 1.381 1.603c.25.455.4.929.42 1.431.018.483-.075 1.171-.563 2.097-.758 1.437-1.51 1.696-1.929 1.764-.596.098-1.341-.087-1.94-.478a3.57 3.57 0 0 0-4.971 1.08c-1.078 1.687-.6 3.94 1.067 5.03 1.778 1.164 4.301 1.993 6.994 1.552 2.87-.47 5.426-2.303 7.124-5.522 2.188-4.15 1.525-7.854.092-10.475-1.316-2.408-3.206-3.816-3.707-4.152-1.812-1.215-6.208-3.249-11.527-1.747-1.913.54-3.031 2.547-2.498 4.482.534 1.936 2.517 3.067 4.43 2.527Z"
		fill="#FFFFFE"/>
	<path
		d="M40.258 18.962c.662 1.345.703 2.575-.263 3.86a3.668 3.668 0 0 0 .683 5.1 3.568 3.568 0 0 0 5.04-.692c3.001-3.99 2.557-8.304.978-11.512-1.472-2.991-4.082-5.42-6.453-6.443-1.827-.788-3.94.071-4.718 1.92-.78 1.848.07 3.986 1.897 4.774.681.294 2.067 1.43 2.836 2.993Z"
		fill="#FFFFFE"/>
</svg>
