<svg width="198" height="32" viewBox="0 0 198 32" fill="none" xmlns="http://www.w3.org/2000/svg">
	<path
		d="M0 2C0 .895.91 0 2.032 0h28.442c1.122 0 2.032.895 2.032 2v28c0 1.105-.91 2-2.032 2H2.032C.91 32 0 31.105 0 30V2Z"
		fill="#FFD803"/>
	<path
		d="M15.05 22.171a.774.774 0 0 1-.07-1.095l3.091-3.491a.78.78 0 0 1 1.1-.069.774.774 0 0 1 .068 1.095l-3.09 3.491a.78.78 0 0 1-1.099.07Zm-5.008-2.476a.779.779 0 0 0 .917-.607l.924-4.563a.779.779 0 0 0-1.527-.307l-.923 4.563c-.085.42.187.83.609.914Zm2.845.769a.78.78 0 0 0 1.044-.35l2.078-4.169a.774.774 0 0 0-.351-1.04.78.78 0 0 0-1.044.35l-2.078 4.17a.774.774 0 0 0 .351 1.04ZM8.28 11.706c.844.17 1.39.988 1.22 1.828l-1.694 8.365a1.557 1.557 0 0 1-1.834 1.214 1.552 1.552 0 0 1-1.22-1.827l1.694-8.366c.17-.84.992-1.383 1.835-1.214Z"
		fill="#FFFFFE"/>
	<path fill-rule="evenodd" clip-rule="evenodd"
				d="M14.252 27.302c-2.576-3.276-6.336-3.935-7.723-3.874a1.824 1.824 0 0 1-1.906-1.737 1.822 1.822 0 0 1 1.743-1.898c2.253-.1 7.284.843 10.762 5.266a1.815 1.815 0 0 1-.312 2.554c-.794.62-1.942.48-2.564-.31ZM12.42 10.376c-.51-1.284-1.608-1.87-2.047-2.023h-.003a2.774 2.774 0 0 0-1.065-.072c-.258.037-.494.12-.7.263-.2.139-.446.384-.666.861-.342.74-.215 1.121-.114 1.31.144.27.447.515.787.637a1.817 1.817 0 0 1 1.095 2.33 1.828 1.828 0 0 1-2.339 1.091c-1.011-.365-2.117-1.13-2.768-2.35-.693-1.298-.745-2.882.02-4.54.988-2.136 2.672-2.988 4.16-3.203a6.318 6.318 0 0 1 2.798.239c1.043.363 3.206 1.52 4.239 4.117a1.817 1.817 0 0 1-1.026 2.361 1.828 1.828 0 0 1-2.37-1.021Z"
				fill="#FFFFFE"/>
	<path fill-rule="evenodd" clip-rule="evenodd"
				d="M16.772 7.687c-.791.134-1.278.488-1.478 1.227a1.827 1.827 0 0 1-3.527-.946c.667-2.467 2.601-3.566 4.395-3.868 1.682-.284 3.486.065 4.637.715a1.815 1.815 0 0 1 .687 2.48 1.83 1.83 0 0 1-2.49.684c-.376-.212-1.321-.444-2.224-.292Z"
				fill="#FFFFFE"/>
	<path
		d="M22.455 18.612a1.562 1.562 0 0 0-2.198.138l-5.665 6.4a1.547 1.547 0 0 0 .138 2.19 1.56 1.56 0 0 0 2.198-.137l5.666-6.401a1.547 1.547 0 0 0-.139-2.19Z"
		fill="#FFFFFE"/>
	<path fill-rule="evenodd" clip-rule="evenodd"
				d="M21.016 14.523c1.335-.371 2.468.146 2.856.402l.002.001c.032.025.439.33.702.802.126.228.202.464.212.716.01.241-.038.585-.286 1.048-.384.718-.767.848-.979.882-.303.049-.681-.044-.985-.24a1.83 1.83 0 0 0-2.525.54 1.815 1.815 0 0 0 .542 2.517c.903.581 2.184.995 3.552.775 1.458-.235 2.756-1.152 3.618-2.761 1.111-2.075.774-3.927.047-5.238a6.28 6.28 0 0 0-1.883-2.075c-.92-.608-3.153-1.625-5.854-.874a1.818 1.818 0 0 0-1.269 2.241 1.827 1.827 0 0 0 2.25 1.264Z"
				fill="#FFFFFE"/>
	<path fill-rule="evenodd" clip-rule="evenodd"
				d="M20.447 9.48c.337.674.357 1.289-.134 1.931-.61.8-.455 1.941.347 2.55a1.831 1.831 0 0 0 2.56-.346c1.524-1.995 1.299-4.152.497-5.756-.748-1.496-2.073-2.71-3.278-3.222a1.83 1.83 0 0 0-2.396.96 1.817 1.817 0 0 0 .964 2.388c.346.146 1.05.714 1.44 1.496Z"
				fill="#FFFFFE"/>
	<path
		d="M54.3 11.75a5.066 5.066 0 0 0-.682-1.466 4.168 4.168 0 0 0-1.074-1.09 4.634 4.634 0 0 0-1.43-.694 6.138 6.138 0 0 0-1.767-.239c-1.208 0-2.27.296-3.186.887-.908.59-1.616 1.45-2.124 2.58-.508 1.12-.762 2.492-.762 4.113 0 1.621.25 3 .75 4.136.5 1.137 1.209 2.004 2.125 2.602.915.591 1.997.887 3.243.887 1.131 0 2.097-.197 2.898-.591.808-.401 1.423-.966 1.847-1.693.43-.727.646-1.587.646-2.58l1.016.148h-6.095v-3.704h9.892v2.931c0 2.046-.438 3.803-1.316 5.273a8.911 8.911 0 0 1-3.624 3.386c-1.54.788-3.301 1.182-5.287 1.182-2.216 0-4.163-.48-5.84-1.443-1.678-.97-2.986-2.345-3.925-4.125-.931-1.788-1.397-3.91-1.397-6.364 0-1.886.277-3.568.831-5.045.562-1.485 1.347-2.743 2.355-3.773a10.184 10.184 0 0 1 3.52-2.352c1.34-.538 2.79-.807 4.352-.807 1.34 0 2.586.193 3.74.58a9.99 9.99 0 0 1 3.07 1.613 8.78 8.78 0 0 1 2.206 2.489 8.37 8.37 0 0 1 1.096 3.159H54.3Zm16.97 16.09c-1.793 0-3.343-.374-4.651-1.124a7.75 7.75 0 0 1-3.013-3.16c-.708-1.355-1.062-2.927-1.062-4.715 0-1.803.354-3.379 1.062-4.727a7.658 7.658 0 0 1 3.012-3.16c1.309-.757 2.86-1.136 4.652-1.136 1.793 0 3.34.379 4.64 1.136a7.637 7.637 0 0 1 3.025 3.16c.708 1.348 1.062 2.924 1.062 4.727 0 1.788-.354 3.36-1.062 4.716a7.728 7.728 0 0 1-3.024 3.159c-1.3.75-2.848 1.125-4.64 1.125Zm.023-3.75c.816 0 1.497-.226 2.044-.68.546-.463.958-1.092 1.235-1.887.284-.796.427-1.701.427-2.716 0-1.015-.142-1.92-.427-2.716-.277-.796-.689-1.424-1.235-1.887-.547-.462-1.228-.693-2.044-.693-.823 0-1.516.231-2.077.694-.554.462-.974 1.09-1.258 1.886-.278.795-.416 1.7-.416 2.716 0 1.015.138 1.92.415 2.716.285.795.705 1.424 1.259 1.886.562.455 1.254.682 2.078.682Zm19.913 3.75c-1.794 0-3.344-.374-4.652-1.124a7.75 7.75 0 0 1-3.013-3.16c-.708-1.355-1.062-2.927-1.062-4.715 0-1.803.354-3.379 1.062-4.727a7.658 7.658 0 0 1 3.013-3.16c1.308-.757 2.858-1.136 4.651-1.136 1.794 0 3.34.379 4.64 1.136a7.637 7.637 0 0 1 3.025 3.16c.708 1.348 1.062 2.924 1.062 4.727 0 1.788-.354 3.36-1.062 4.716a7.728 7.728 0 0 1-3.024 3.159c-1.3.75-2.847 1.125-4.64 1.125Zm.022-3.75c.816 0 1.497-.226 2.044-.68.546-.463.958-1.092 1.235-1.887.284-.796.427-1.701.427-2.716 0-1.015-.142-1.92-.427-2.716-.277-.796-.689-1.424-1.235-1.887-.547-.462-1.228-.693-2.044-.693-.823 0-1.515.231-2.077.694-.554.462-.974 1.09-1.258 1.886-.278.795-.416 1.7-.416 2.716 0 1.015.138 1.92.416 2.716.284.795.704 1.424 1.258 1.886.562.455 1.254.682 2.078.682Zm18.435 3.694c-1.347 0-2.566-.34-3.659-1.023-1.085-.689-1.947-1.7-2.586-3.034-.631-1.34-.946-2.985-.946-4.931 0-2 .327-3.663.981-4.99.654-1.332 1.523-2.329 2.609-2.988a6.76 6.76 0 0 1 3.589-1c.993 0 1.82.167 2.482.5.67.326 1.208.735 1.616 1.228.416.484.731.962.947 1.431h.15v-8.75h4.906V27.5h-4.848v-2.796h-.208a6.242 6.242 0 0 1-.981 1.444c-.416.47-.958.86-1.628 1.17-.662.31-1.47.466-2.424.466Zm1.558-3.852c.793 0 1.462-.212 2.009-.636.554-.432.977-1.035 1.27-1.807.3-.773.45-1.678.45-2.716 0-1.038-.146-1.94-.439-2.705-.292-.765-.716-1.356-1.27-1.773-.554-.416-1.227-.624-2.02-.624-.808 0-1.489.215-2.043.647-.554.432-.973 1.03-1.258 1.796-.285.765-.427 1.651-.427 2.659 0 1.015.142 1.913.427 2.693.292.773.712 1.379 1.258 1.818.554.432 1.235.648 2.043.648Zm12.666 3.568V4.227h15.653v4.057h-10.655v5.545h9.616v4.057h-9.616V27.5h-4.998Zm25.632.34c-1.793 0-3.344-.374-4.652-1.124a7.747 7.747 0 0 1-3.013-3.16c-.708-1.355-1.062-2.927-1.062-4.715 0-1.803.354-3.379 1.062-4.727a7.656 7.656 0 0 1 3.013-3.16c1.308-.757 2.859-1.136 4.652-1.136 1.793 0 3.339.379 4.64 1.136a7.638 7.638 0 0 1 3.024 3.16c.708 1.348 1.062 2.924 1.062 4.727 0 1.788-.354 3.36-1.062 4.716a7.729 7.729 0 0 1-3.024 3.159c-1.301.75-2.847 1.125-4.64 1.125Zm.023-3.75c.815 0 1.497-.226 2.043-.68.546-.463.958-1.092 1.235-1.887.285-.796.427-1.701.427-2.716 0-1.015-.142-1.92-.427-2.716-.277-.796-.689-1.424-1.235-1.887-.546-.462-1.228-.693-2.043-.693-.824 0-1.516.231-2.078.694-.554.462-.973 1.09-1.258 1.886-.277.795-.416 1.7-.416 2.716 0 1.015.139 1.92.416 2.716.285.795.704 1.424 1.258 1.886.562.455 1.254.682 2.078.682Zm19.912 3.75c-1.793 0-3.344-.374-4.652-1.124a7.747 7.747 0 0 1-3.013-3.16c-.708-1.355-1.062-2.927-1.062-4.715 0-1.803.354-3.379 1.062-4.727a7.656 7.656 0 0 1 3.013-3.16c1.308-.757 2.859-1.136 4.652-1.136 1.793 0 3.34.379 4.64 1.136a7.638 7.638 0 0 1 3.024 3.16c.708 1.348 1.062 2.924 1.062 4.727 0 1.788-.354 3.36-1.062 4.716a7.729 7.729 0 0 1-3.024 3.159c-1.3.75-2.847 1.125-4.64 1.125Zm.023-3.75c.816 0 1.497-.226 2.043-.68.546-.463.958-1.092 1.235-1.887.285-.796.427-1.701.427-2.716 0-1.015-.142-1.92-.427-2.716-.277-.796-.689-1.424-1.235-1.887-.546-.462-1.227-.693-2.043-.693-.824 0-1.516.231-2.078.694-.554.462-.973 1.09-1.258 1.886-.277.795-.416 1.7-.416 2.716 0 1.015.139 1.92.416 2.716.285.795.704 1.424 1.258 1.886.562.455 1.254.682 2.078.682Zm18.434 3.694c-1.346 0-2.566-.34-3.659-1.023-1.085-.689-1.947-1.7-2.586-3.034-.631-1.34-.946-2.985-.946-4.931 0-2 .327-3.663.981-4.99.654-1.332 1.524-2.329 2.609-2.988a6.763 6.763 0 0 1 3.59-1c.992 0 1.82.167 2.481.5.67.326 1.209.735 1.617 1.228.415.484.731.962.946 1.431h.15v-8.75H198V27.5h-4.848v-2.796h-.208a6.242 6.242 0 0 1-.981 1.444c-.416.47-.958.86-1.628 1.17-.661.31-1.47.466-2.424.466Zm1.559-3.852c.792 0 1.462-.212 2.008-.636.554-.432.977-1.035 1.27-1.807.3-.773.45-1.678.45-2.716 0-1.038-.146-1.94-.439-2.705-.292-.765-.715-1.356-1.269-1.773-.554-.416-1.228-.624-2.02-.624-.808 0-1.489.215-2.044.647-.554.432-.973 1.03-1.258 1.796-.285.765-.427 1.651-.427 2.659 0 1.015.142 1.913.427 2.693.293.773.712 1.379 1.258 1.818.555.432 1.236.648 2.044.648Z"
		fill="#FFD803"/>
</svg>
