<svg viewBox="0 0 32 32" xmlns="http://www.w3.org/2000/svg">
	<path
		d="M9.6 25.6a3.186 3.186 0 0 0-3.184 3.2c0 1.768 1.416 3.2 3.184 3.2a3.2 3.2 0 1 0 0-6.4ZM0 0v3.2h3.2l5.752 12.136-2.16 3.92A3.253 3.253 0 0 0 6.4 20.8 3.2 3.2 0 0 0 9.6 24h19.2v-3.2H10.28a.396.396 0 0 1-.4-.4.38.38 0 0 1 .048-.192L11.36 17.6h11.92a3.21 3.21 0 0 0 2.8-1.648L31.8 5.568c.128-.224.2-.488.2-.768a1.6 1.6 0 0 0-1.6-1.6H6.744L5.224 0H0Zm25.6 25.6a3.186 3.186 0 0 0-3.184 3.2c0 1.768 1.416 3.2 3.184 3.2a3.2 3.2 0 1 0 0-6.4Z"/>
</svg>
